<?xml version="1.0" encoding="UTF-8"?>
<svg id="Layer_1" data-name="Layer 1" xmlns="http://www.w3.org/2000/svg" version="1.1" viewBox="0 0 655.7 131.7">
  <defs>
    <style>
      .cls-1 {
        fill: #000;
        stroke-width: 0px;
      }
    </style>
  </defs>
  <g>
    <path class="cls-1" d="M26,31.7c0-14.9-1.3-16.5-9.2-17.2l-3.4-.3c-.8-.5-.5-2.9.3-3.4,7.8.3,12.3.4,18,.4s9.9,0,15.3-.4c.8.4,1.1,2.8.3,3.4l-2,.3c-7.9,1.1-8.2,2.9-8.2,17.2v49.7c0,10.6-.5,19.8-3.1,26-4.4,10.7-13.9,19.3-26.4,19.3s-5.8,0-5.8-2.8,2-6.2,4.8-6.2,3.2.3,5,.8c1.9.5,3.8.9,5.6.9,2.8,0,4.4-1.6,5.4-3.5,3.1-6.3,3.5-26.4,3.5-33.6V31.7h-.1Z"/>
    <path class="cls-1" d="M65.1,65.5c-3.5,0-3.6.3-3.6,3.6,0,13.5,7.9,25.1,22.2,25.1s8.2-1.3,12.3-6.6c1.3-.4,2.3.4,2.4,1.6-4.4,9.1-14.1,12.5-21,12.5s-15.5-3.8-19.4-8.8c-4-5.2-5.6-11.5-5.6-17.4,0-16.5,10.9-30.3,26.9-30.3s19,7.9,19,15.9-.3,2.9-.5,3.5c-.4.8-2.3.9-7.9.9,0,0-24.8,0-24.8,0ZM73.4,61.5c9.9,0,12.9-.5,13.9-1.3.4-.3.8-.8.8-2.5,0-3.8-2.5-8.4-10.3-8.4s-14.7,7.2-14.9,11.7c0,.3,0,.7.9.7h9.5v-.2Z"/>
    <path class="cls-1" d="M112.2,56.5c0-3.6,0-3.9-2.7-3.9h-4.7c-.8-.5-.9-1.7-.4-2.5l5.8-2.8c1.1-.5,2-1.3,2-2.7,0-4.6,1.1-13.4,4.6-20.8,3.8-7.8,11.5-16.6,24.7-16.6s13.1,3.6,15.1,5.9c3.2-4.2,11.1-9.1,20-9.1s12.7,3.2,12.7,8-2.4,4.8-4.8,4.8-2.1-.5-3.2-1.7c-2.4-2.8-6.3-5.9-10.5-5.9s-7.8,2.7-9.6,7.2c-2.3,5.8-3.1,14.2-3.1,22.9v3.9c0,3.6,0,3.8,2.3,3.8h15.3c1.5,1.3.5,5.1-.9,5.6h-14.3c-2.3,0-2.3.3-2.3,3.9v28.3c0,9.6.3,11.3,5.1,11.7l4.3.4c.9.7.7,2.9-.3,3.4-5.5-.3-9.4-.4-14.1-.4s-8.8,0-12.9.4c-.9-.4-1.2-2.7-.3-3.4l3.1-.4c5-.7,5.1-2,5.1-11.7v-28.3c0-3.6,0-3.9-2.7-3.9h-21c-2.3,0-2.3.3-2.3,3.9v28.3c0,9.6.3,11.3,5.1,11.7l4.8.4c.9.7.7,2.9-.3,3.4-6-.3-9.9-.4-14.6-.4s-8.8,0-12.9.4c-.9-.4-1.2-2.7-.3-3.4l3.1-.4c5-.7,5.1-2,5.1-11.7,0,0,0-28.3,0-28.3ZM146.1,47c1.1,0,2-1.1,2-2.4,0-8.3,1.1-15.4,3.4-23.2-1.2-4.2-6.2-9.5-13.3-9.5-14.6,0-16.1,16.6-16.1,30.7v.7c0,3.6,0,3.8,3.9,3.8h20.1Z"/>
  </g>
  <g>
    <path class="cls-1" d="M205.9,11.1h37.2c17.4,0,29.2,12.8,29.2,30.8s-11.8,31.1-29.2,31.1h-15.3v27.7h-21.9V11.1ZM238.6,54.3c7.6,0,11.4-5.1,11.4-12.3s-3.8-12-11-12h-11.2v24.3h10.8Z"/>
    <path class="cls-1" d="M313.5,60.5h.9v-1.1c0-5.4-4.1-7.1-9.5-7.1-8.1,0-17.4,6.1-17.4,6.1l-7.5-15.3s11.2-8.4,27.1-8.4,29.1,9.9,29.1,26.3v39.7h-19.8v-3.9c0-2.1.2-4,.2-4h-.2s-4.8,9.4-18.3,9.4-21.9-8-21.9-20.8c0-18.8,27.5-20.9,37.5-20.9ZM303.9,85.7c5.6,0,10.7-6.1,10.7-11.4v-1.4h-2c-6.9,0-14.8,2-14.8,7.4s1.9,5.4,6.1,5.4Z"/>
    <path class="cls-1" d="M353.8,78.2s7.1,6.5,16.4,6.5,6.4-.9,6.4-3c0-5.6-30.2-6.3-30.2-27.3s11.7-19.7,26.6-19.7,22.7,7.4,22.7,7.4l-7.4,15.4s-6.3-5.3-15.3-5.3-6.4.9-6.4,3.1c0,4.9,30.2,5.6,30.2,26.5s-9.8,20.4-26.5,20.4-25.8-9.5-25.8-9.5l9.3-14.5Z"/>
    <path class="cls-1" d="M411,78.2s7.1,6.5,16.4,6.5,6.4-.9,6.4-3c0-5.6-30.2-6.3-30.2-27.3s11.7-19.7,26.6-19.7,22.7,7.4,22.7,7.4l-7.4,15.4s-6.3-5.3-15.3-5.3-6.4.9-6.4,3.1c0,4.9,30.2,5.6,30.2,26.5s-9.8,20.4-26.5,20.4-25.8-9.5-25.8-9.5l9.3-14.5Z"/>
    <path class="cls-1" d="M493.1,34.7c19.1,0,29.8,13.3,29.8,31.2s-.5,6.8-.5,6.8h-40.7c1.6,7.9,8.1,11.5,15,11.5s17.8-6.5,17.8-6.5l8,15.2s-10.4,9.4-27.6,9.4-35.5-16.7-35.5-33.8,12.8-33.7,33.6-33.7ZM501.1,60.3c0-4.9-3.4-9.3-8.5-9.3s-9.3,4.5-10.4,9.3h18.9Z"/>
    <path class="cls-1" d="M536.3,54.3h-8.3v-16.9h8.9v-18.6h21.1v18.6h13.5v16.9h-13.5v19.8c0,7.3,7.4,8.3,11.5,8.3s2.9-.1,2.9-.1v18.8s-2.4.4-5.9.4c-10.3,0-30.2-2.8-30.2-24.4v-22.7Z"/>
    <path class="cls-1" d="M586.3,54.3h-8.3v-16.9h8.9v-18.6h21.1v18.6h13.5v16.9h-13.5v19.8c0,7.3,7.4,8.3,11.5,8.3s2.9-.1,2.9-.1v18.8s-2.4.4-5.9.4c-10.3,0-30.2-2.8-30.2-24.4v-22.7Z"/>
    <path class="cls-1" d="M634,36.2h21.7v64.6h-21.7V36.2ZM634.3,11.1h21.2v16.9h-21.2V11.1Z"/>
  </g>
</svg>